<?xml version="1.0" encoding="utf-8"?>
<!-- Generator: Adobe Illustrator 21.0.0, SVG Export Plug-In . SVG Version: 6.00 Build 0)  -->
<svg version="1.1" id="Layer_1" xmlns="http://www.w3.org/2000/svg" xmlns:xlink="http://www.w3.org/1999/xlink" x="0px" y="0px"
	 width="1400px" height="980px" viewBox="0 0 1400 980" style="enable-background:new 0 0 1400 980;" xml:space="preserve">
<style type="text/css">
	.st0{fill-rule:evenodd;clip-rule:evenodd;fill:#C7D1DD;}
	.st1{fill-rule:evenodd;clip-rule:evenodd;fill:#E3E9F0;}
	.st2{fill-rule:evenodd;clip-rule:evenodd;fill:#F5F8F8;}
	.st3{fill-rule:evenodd;clip-rule:evenodd;fill:#8B99AA;}
	.st4{fill-rule:evenodd;clip-rule:evenodd;fill:#728091;}
	.st5{fill-rule:evenodd;clip-rule:evenodd;fill:#9BABBB;}
	.st6{fill-rule:evenodd;clip-rule:evenodd;fill:#F29B54;}
	.st7{fill-rule:evenodd;clip-rule:evenodd;fill:#F0A66E;}
	.st8{fill-rule:evenodd;clip-rule:evenodd;fill:#F7C49B;}
	.st9{fill-rule:evenodd;clip-rule:evenodd;fill:#96353A;}
	.st10{fill-rule:evenodd;clip-rule:evenodd;fill:#D58589;}
	.st11{fill-rule:evenodd;clip-rule:evenodd;fill:#A95156;}
	.st12{fill-rule:evenodd;clip-rule:evenodd;fill:#D5E1ED;}
	.st13{fill-rule:evenodd;clip-rule:evenodd;fill:#E5EEF8;}
	.st14{fill-rule:evenodd;clip-rule:evenodd;fill:#E7E5E4;}
	.st15{fill-rule:evenodd;clip-rule:evenodd;fill:#AFB0AF;}
	.st16{fill-rule:evenodd;clip-rule:evenodd;fill:#627382;}
	.st17{fill-rule:evenodd;clip-rule:evenodd;fill:#CACACB;}
	.st18{fill-rule:evenodd;clip-rule:evenodd;fill:#969697;}
	.st19{fill-rule:evenodd;clip-rule:evenodd;fill:#FFFFFF;}
	.st20{fill-rule:evenodd;clip-rule:evenodd;fill:#F8B800;}
	.st21{fill-rule:evenodd;clip-rule:evenodd;fill:#84252C;}
	.st22{fill-rule:evenodd;clip-rule:evenodd;fill:#F5B583;}
	.st23{fill-rule:evenodd;clip-rule:evenodd;fill:#616060;}
</style>
<g>
	<rect y="0" class="st0" width="1400" height="980"/>
	<path class="st1" d="M1159.5,108.5h-919c-40.4,0-73.4,33-73.4,73.4v621.8c0,40.4,33,73.4,73.4,73.4h919c40.4,0,73.4-33,73.4-73.4
		V182C1232.9,141.6,1199.9,108.5,1159.5,108.5z"/>
	<polygon class="st2" points="830.2,877.2 830.2,826.4 762.9,877.2 	"/>
	<polygon class="st2" points="592.7,877.2 675.8,877.2 830.2,760.7 830.2,241.4 592.7,420.6 	"/>
	<polygon class="st2" points="325.2,877.2 562.6,877.2 562.6,443.3 325.2,622.5 	"/>
	<path class="st2" d="M1159.5,108.5h-31.6V536l105-79.2V182C1232.9,141.6,1199.9,108.5,1159.5,108.5z"/>
	<path class="st2" d="M1127.9,877.2h31.6c40.4,0,73.4-33,73.4-73.4V522.4l-105,79.2V877.2z"/>
	<polygon class="st2" points="860.3,877.2 1097.8,877.2 1097.8,624.4 860.3,803.6 	"/>
	<polygon class="st2" points="860.3,218.6 860.3,737.9 1097.8,558.7 1097.8,108.5 1006.2,108.5 	"/>
	<path class="st3" d="M865.7,521.1c-17.8-30.9-56.9-42.3-88.4-26.6H598.8c-38.3,0-69.7,31.4-69.7,69.7v267.1
		c0,14.6,4.5,28.1,12.3,39.4h308.5c7.7-11.2,12.3-24.8,12.3-39.4v-88.4c16.3,4,34.1,2,49.7-7c32.1-18.5,43.2-60,24.7-92.1
		L865.7,521.1z"/>
	<path class="st4" d="M865.7,521.1c-18.5-32.1-60-43.2-92.1-24.7v0c-19,11-30.6,29.9-33.1,50.3c2.7-2.1,5.5-4.1,8.6-5.9
		c32.1-18.5,73.6-7.4,92.1,24.7L912,688.2c7.6,13.1,10.2,27.8,8.5,41.8c25.4-20.5,32.9-57.2,16.1-86.2L865.7,521.1z"/>
	<path class="st4" d="M777.3,494.5H636.2c-2.6,8.3-4,17.2-4,26.3c0,49.6,41.2,89.9,92,89.9c50.8,0,92-40.2,92-89.9
		c0-11.8-2.3-23-6.5-33.3C798.8,487.1,787.6,489.3,777.3,494.5z"/>
	<path class="st3" d="M617.7,496.4L617.7,496.4c-32.1-18.5-73.6-7.4-92.1,24.7l-70.8,122.7c-18.5,32.1-7.4,73.6,24.7,92.1h0
		c32.1,18.5,73.6,7.4,92.1-24.7l70.8-122.7C660.9,556.4,649.8,515,617.7,496.4z"/>
	<path class="st5" d="M525.6,521.1l-63.7,110.4c30.8,12.9,67.3,1.1,84.4-28.5L610,492.6C579.3,479.8,542.7,491.5,525.6,521.1z"/>
	<path class="st0" d="M656,529.7c-9.6-9.6-25.2-9.6-34.8,0c-9.6,9.6-9.6,25.2,0,34.8l32.5,32.5c9.6,9.6,25.2,9.6,34.8,0h0
		c9.6-9.6,9.6-25.2,0-34.8L656,529.7z"/>
	<path class="st0" d="M735.3,529.7l-32.5,32.5c-9.6,9.6-9.6,25.2,0,34.8c9.6,9.6,25.2,9.6,34.8,0l32.5-32.5c9.6-9.6,9.6-25.2,0-34.8
		C760.6,520.2,744.9,520.2,735.3,529.7z"/>
	<path class="st6" d="M756,322.5H635.4c-27.1,0-49.2,22.2-49.2,49.2v114.7c0,48.8,39.9,88.8,88.8,88.8h41.5
		c48.8,0,88.8-39.9,88.8-88.8V371.8C805.2,344.7,783,322.5,756,322.5z"/>
	<path class="st7" d="M655.6,339.3h-57.1c-7.7,8.7-12.3,20.1-12.3,32.5v114.7c0,48.8,39.9,88.8,88.8,88.8h31.3
		c1.6-8.2,2.4-16.8,2.4-25.5V402.5C708.7,367.7,684.8,339.3,655.6,339.3z"/>
	<path class="st8" d="M646.5,472.3c2.4,0.5,4.8,0.8,7.4,0.8c0.7,0,1.4,0,2.1-0.1l19.6-64.5c-2.5-1.9-5.3-3.5-8.3-4.7L646.5,472.3z"
		/>
	<path class="st8" d="M653.9,401.1c-2.5,0-5,0.3-7.4,0.8l-18.3,60.4c4.1,4.2,9.3,7.4,15,9.2l20.9-68.8
		C660.9,401.6,657.4,401.1,653.9,401.1z"/>
	<path class="st8" d="M746.5,402.3L725.6,471c3.7,1.3,7.7,2,11.9,2c1.9,0,3.7-0.1,5.5-0.4l18.9-62
		C757.5,406.7,752.3,403.8,746.5,402.3z"/>
	<path class="st8" d="M746.8,471.8c4.1-1.1,7.9-2.9,11.3-5.3l12.9-42.5c-1.5-3.9-3.7-7.5-6.5-10.7L746.8,471.8z"/>
	<ellipse class="st9" cx="732" cy="509.7" rx="8.7" ry="18.1"/>
	<path class="st9" d="M603.3,329.5L603.3,329.5c-9.1,0-16.5,7.4-16.5,16.5v70.1c0,9.1,7.4,16.5,16.5,16.5h0
		c9.1,0,16.5-7.4,16.5-16.5V346C619.8,336.9,612.3,329.5,603.3,329.5z"/>
	<path class="st9" d="M788.7,329.5c-9.1,0-16.5,7.4-16.5,16.5v70.1c0,9.1,7.4,16.5,16.5,16.5c9.1,0,16.5-7.4,16.5-16.5V346
		C805.2,336.9,797.8,329.5,788.7,329.5z"/>
	<path class="st9" d="M695.4,260.8h-81.9c-31.1,0-56.5,25.4-56.5,56.5c0,31.1,25.4,56.5,56.5,56.5h81.9c31.1,0,56.5-25.4,56.5-56.5
		C751.9,286.3,726.5,260.8,695.4,260.8z"/>
	<path class="st9" d="M792.2,277h-36.4c-23.7,0-43,19.4-43,43c0,23.7,19.4,43,43,43h36.4c23.7,0,43-19.4,43-43
		C835.2,296.3,815.8,277,792.2,277z"/>
	<circle class="st9" cx="731.1" cy="448.6" r="9.9"/>
	<circle class="st9" cx="660.2" cy="448.6" r="9.9"/>
	<path class="st10" d="M651.6,443.7c-0.7,1.2-1.1,2.6-1.3,4.1L651.6,443.7z"/>
	<path class="st10" d="M656.5,439.4l-4.5,14.7c1.8,2.6,4.8,4.4,8.2,4.4l0.2,0l5.5-18c-1.6-1.1-3.6-1.8-5.7-1.8
		C658.9,438.7,657.7,439,656.5,439.4z"/>
	<path class="st10" d="M735.2,439.6l-5.7,18.8c0.5,0.1,1.1,0.1,1.6,0.1c5.5,0,9.9-4.4,9.9-9.9C741,444.6,738.6,441.1,735.2,439.6z"
		/>
	<path class="st9" d="M681.8,409.2c-3.6-3.6-8-6.6-12.8-8.6c-4.7-1.9-9.7-3-15.1-3c-5.3,0-10.4,1.1-15.1,3c-4.8,2-9.2,4.9-12.8,8.6
		c-3.4,3.4-6.2,7.5-8.2,12c-1.6,3.6-2.7,7.5-3.1,11.6l-26.9-18.2c-0.8-0.5-1.9-0.3-2.4,0.5c-0.5,0.8-0.3,1.9,0.5,2.4l28.6,19.3
		l0,0.2c0,5.3,1.1,10.4,3,15.1c2,4.8,4.9,9.2,8.6,12.8c3.6,3.6,8,6.6,12.8,8.6c4.6,1.9,9.7,3,15.1,3c5.3,0,10.4-1.1,15.1-3
		c4.8-2,9.2-4.9,12.8-8.6c3.6-3.6,6.6-8,8.6-12.8c1.9-4.6,3-9.7,3-15.1c0-5.3-1.1-10.4-3-15.1C688.3,417.2,685.4,412.8,681.8,409.2z
		 M687.1,450.8c-1.8,4.4-4.5,8.4-7.8,11.7c-3.3,3.3-7.3,6-11.7,7.8c-4.2,1.8-8.9,2.7-13.8,2.7c-4.9,0-9.5-1-13.8-2.7
		c-4.4-1.8-8.4-4.5-11.7-7.8c-3.3-3.3-6-7.3-7.8-11.7c-1.8-4.2-2.7-8.9-2.7-13.8l0-1.7c0.2-4.5,1.3-8.9,3-12.8
		c1.8-4.1,4.4-7.8,7.5-10.9c3.3-3.3,7.3-6,11.7-7.8c4.2-1.8,8.9-2.7,13.8-2.7c4.9,0,9.5,1,13.8,2.7c4.4,1.8,8.4,4.5,11.7,7.8
		c3.3,3.3,6,7.3,7.8,11.7c1.8,4.2,2.7,8.9,2.7,13.8C689.8,442,688.9,446.6,687.1,450.8z"/>
	<path class="st9" d="M803.3,414.6l-26.7,18c-0.4-4-1.5-7.8-3-11.3c-2-4.6-4.8-8.7-8.3-12.2c-3.6-3.6-8-6.6-12.8-8.6
		c-4.6-1.9-9.7-3-15.1-3c-5.3,0-10.4,1.1-15.1,3c-4.8,2-9.2,4.9-12.8,8.6c-3.6,3.6-6.6,8-8.6,12.8c-1.9,4.7-3,9.7-3,15.1
		c0,5.3,1.1,10.4,3,15.1c2,4.8,4.9,9.2,8.6,12.8c3.6,3.6,8,6.6,12.8,8.6c4.7,1.9,9.7,3,15.1,3c5.3,0,10.4-1.1,15.1-3
		c4.8-2,9.2-4.9,12.8-8.6c3.6-3.6,6.6-8,8.6-12.8c1.9-4.6,3-9.7,3-15.1l0-0.4l28.4-19.1c0.8-0.5,1-1.6,0.5-2.4
		C805.2,414.3,804.1,414.1,803.3,414.6z M770.7,450.8c-1.8,4.4-4.5,8.4-7.8,11.7c-3.3,3.3-7.3,6-11.7,7.8c-4.2,1.8-8.9,2.7-13.8,2.7
		s-9.5-1-13.8-2.7c-4.4-1.8-8.4-4.5-11.7-7.8c-3.3-3.3-6-7.3-7.8-11.7c-1.8-4.2-2.7-8.9-2.7-13.8c0-4.9,1-9.5,2.7-13.8
		c1.8-4.4,4.5-8.4,7.8-11.7c3.3-3.3,7.3-6,11.7-7.8c4.2-1.8,8.9-2.7,13.8-2.7s9.5,1,13.8,2.7c4.4,1.8,8.4,4.5,11.7,7.8
		c3.2,3.2,5.8,6.9,7.6,11.1c1.7,4,2.8,8.4,2.9,13c0,0.1,0,0.1,0,0.2l0,1.2C773.4,442,772.5,446.6,770.7,450.8z"/>
	<ellipse class="st7" cx="587.8" cy="428.7" rx="22" ry="26.2"/>
	<ellipse class="st6" cx="803.6" cy="428.7" rx="22" ry="26.2"/>
	<path class="st11" d="M667.3,273.5H613c-20.6,0-37.4,16.9-37.4,37.4v0c0,20.6,16.9,37.4,37.4,37.4h54.3c20.6,0,37.4-16.8,37.4-37.4
		v0C704.7,290.3,687.9,273.5,667.3,273.5z"/>
	<path class="st11" d="M701.1,299h-54.3c-20.6,0-37.4,16.9-37.4,37.4v0c0,20.6,16.9,37.4,37.4,37.4h54.3c20.6,0,37.4-16.9,37.4-37.4
		v0C738.5,315.9,721.7,299,701.1,299z"/>
	<path class="st11" d="M796,287.3h-7.3c-16,0-29.2,13.1-29.2,29.2v0c0,16,13.1,29.2,29.2,29.2h7.3c16,0,29.2-13.1,29.2-29.2v0
		C825.2,300.4,812,287.3,796,287.3z"/>
	<path class="st12" d="M1227.8,851.1H163.5c-10.5,0-19.1,8.6-19.1,19.1v0c0,10.5,8.6,19.1,19.1,19.1h1064.3
		c10.5,0,19.1-8.6,19.1-19.1v0C1247,859.7,1238.4,851.1,1227.8,851.1z"/>
	<path class="st13" d="M448.4,851.1H163.5c-10.5,0-19.1,8.6-19.1,19.1v0c0,10.5,8.6,19.1,19.1,19.1h284.9c10.5,0,19.1-8.6,19.1-19.1
		v0C467.6,859.7,459,851.1,448.4,851.1z"/>
	<g>
		<path class="st14" d="M165.5,824.4c0,10.9,8.9,19.7,19.7,19.7h137.6v-39.5H185.3C174.4,804.7,165.5,813.5,165.5,824.4z"/>
		<rect x="322.9" y="804.7" class="st15" width="82.9" height="39.5"/>
		<rect x="229.7" y="844.1" class="st16" width="187.7" height="6.9"/>
		<rect x="229.7" y="797.7" class="st16" width="187.7" height="6.9"/>
		<path class="st3" d="M172.8,810.5c4.5-3.6,10.7-5.8,17.4-5.8h139.5c2.4,0,4.3-1.6,4.3-3.5c0-1.9-1.9-3.5-4.3-3.5H190.2
			c-9.2,0-17.5,3-23.6,7.8c-6,4.8-9.8,11.5-9.8,18.9c0,7.3,3.8,14,9.8,18.8c6,4.8,14.4,7.8,23.6,7.8h139.5c2.4,0,4.3-1.6,4.3-3.5
			c0-1.9-1.9-3.5-4.3-3.5H190.2c-6.8,0-13-2.2-17.4-5.8c-4.5-3.6-7.3-8.5-7.3-13.9C165.5,819,168.3,814,172.8,810.5z"/>
		<g>
			<rect x="193" y="809.9" class="st17" width="129.9" height="3.6"/>
			<rect x="322.9" y="809.9" class="st18" width="82.9" height="3.6"/>
			<rect x="193" y="816.3" class="st17" width="129.9" height="3.6"/>
			<rect x="193" y="822.6" class="st17" width="129.9" height="3.6"/>
			<rect x="193" y="829" class="st17" width="129.9" height="3.6"/>
			<rect x="193" y="835.3" class="st17" width="129.9" height="3.6"/>
			<rect x="322.9" y="816.3" class="st18" width="82.9" height="3.6"/>
			<rect x="322.9" y="822.6" class="st18" width="82.9" height="3.6"/>
			<rect x="322.9" y="829" class="st18" width="82.9" height="3.6"/>
			<rect x="322.9" y="835.3" class="st18" width="82.9" height="3.6"/>
		</g>
	</g>
	<g>
		<path class="st14" d="M194.9,771c0,10.9,8.9,19.7,19.7,19.7h97.5v-39.5h-97.5C203.8,751.3,194.9,760.2,194.9,771z"/>
		<rect x="312.1" y="751.3" class="st15" width="61.8" height="39.5"/>
		<rect x="242.7" y="790.8" class="st16" width="139.9" height="6.9"/>
		<rect x="242.7" y="744.3" class="st16" width="139.9" height="6.9"/>
		<path class="st3" d="M213.3,751.3h103.9c1.8,0,3.2-1.6,3.2-3.5c0-1.9-1.4-3.5-3.2-3.5H213.3c-6.8,0-13.1,3-17.6,7.8
			c-4.5,4.8-7.3,11.5-7.3,18.8c0,7.3,2.8,14,7.3,18.9c4.5,4.8,10.7,7.8,17.6,7.8h103.9c1.8,0,3.2-1.6,3.2-3.5c0-1.9-1.4-3.5-3.2-3.5
			H213.3c-5.1,0-9.7-2.2-13-5.8c-3.3-3.6-5.4-8.5-5.4-13.9c0-5.4,2.1-10.4,5.4-13.9C203.6,753.5,208.2,751.3,213.3,751.3z"/>
		<g>
			<rect x="215.3" y="756.6" class="st17" width="96.8" height="3.6"/>
			<rect x="312.1" y="756.6" class="st18" width="61.8" height="3.6"/>
			<rect x="215.3" y="762.9" class="st17" width="96.8" height="3.6"/>
			<rect x="215.3" y="769.2" class="st17" width="96.8" height="3.6"/>
			<rect x="215.3" y="775.6" class="st17" width="96.8" height="3.6"/>
			<rect x="215.3" y="781.9" class="st17" width="96.8" height="3.6"/>
			<rect x="312.1" y="762.9" class="st18" width="61.8" height="3.6"/>
			<rect x="312.1" y="769.2" class="st18" width="61.8" height="3.6"/>
			<rect x="312.1" y="775.6" class="st18" width="61.8" height="3.6"/>
			<rect x="312.1" y="781.9" class="st18" width="61.8" height="3.6"/>
		</g>
	</g>
	<g>
		<path class="st14" d="M339.5,697.9h-82v39.5h82c10.9,0,19.7-8.9,19.7-19.7C359.2,706.8,350.4,697.9,339.5,697.9z"/>
		<rect x="203.9" y="697.9" class="st15" width="53.6" height="39.5"/>
		<rect x="196.5" y="691" class="st16" width="121.3" height="6.9"/>
		<rect x="196.5" y="737.4" class="st16" width="121.3" height="6.9"/>
		<path class="st3" d="M343.3,691h-90.1c-1.5,0-2.8,1.6-2.8,3.5c0,1.9,1.3,3.5,2.8,3.5h90.1c4.4,0,8.4,2.2,11.3,5.8
			c2.9,3.6,4.7,8.5,4.7,13.9c0,5.4-1.8,10.4-4.7,13.9c-2.9,3.6-6.9,5.8-11.3,5.8h-90.1c-1.5,0-2.8,1.6-2.8,3.5
			c0,1.9,1.3,3.5,2.8,3.5h90.1c5.9,0,11.3-3,15.2-7.8c3.9-4.8,6.3-11.5,6.3-18.9c0-7.3-2.4-14-6.3-18.8
			C354.6,694,349.2,691,343.3,691z"/>
		<g>
			<rect x="257.5" y="703.2" class="st17" width="84" height="3.6"/>
			<rect x="203.9" y="703.2" class="st18" width="53.6" height="3.6"/>
			<rect x="257.5" y="709.5" class="st17" width="84" height="3.6"/>
			<rect x="257.5" y="715.9" class="st17" width="84" height="3.6"/>
			<rect x="257.5" y="722.2" class="st17" width="84" height="3.6"/>
			<rect x="257.5" y="728.6" class="st17" width="84" height="3.6"/>
			<rect x="203.9" y="709.5" class="st18" width="53.6" height="3.6"/>
			<rect x="203.9" y="715.9" class="st18" width="53.6" height="3.6"/>
			<rect x="203.9" y="722.2" class="st18" width="53.6" height="3.6"/>
			<rect x="203.9" y="728.6" class="st18" width="53.6" height="3.6"/>
		</g>
	</g>
	<path class="st19" d="M456.6,457.8L364.8,446l37.9-20.3c3.8-1.7,7.4-3.7,11-5.9l0.1,0l0,0c28-17.4,46.7-48.4,46.7-83.8
		c0-54.4-44.1-98.6-98.6-98.6c-54.4,0-98.6,44.1-98.6,98.6c0,39.7,23.5,73.9,57.3,89.5c-17.8,10-36.3,20.7-35,20.5
		c2.3-0.4,91,27,91,27l-22.3,19.9l124.2,7l-69.9-18L456.6,457.8z"/>
	<circle class="st20" cx="358.8" cy="320.1" r="39.3"/>
	<path class="st17" d="M372,363.2h-26.4c-2,0-3.6,1.6-3.6,3.6v0c0,2,1.6,3.6,3.6,3.6H372c2,0,3.6-1.6,3.6-3.6v0
		C375.6,364.9,374,363.2,372,363.2z"/>
	<path class="st17" d="M372,373.1h-26.4c-2,0-3.6,1.6-3.6,3.6v0c0,2,1.6,3.6,3.6,3.6H372c2,0,3.6-1.6,3.6-3.6v0
		C375.6,374.7,374,373.1,372,373.1z"/>
	<path class="st17" d="M372,383h-26.4c-2,0-3.6,1.6-3.6,3.6c0,2,1.6,3.6,3.6,3.6H372c2,0,3.6-1.6,3.6-3.6
		C375.6,384.6,374,383,372,383z"/>
	<path class="st17" d="M363.4,391.3h-9.2c-2,0-3.6,1.6-3.6,3.6v0c0,2,1.6,3.6,3.6,3.6h9.2c2,0,3.6-1.6,3.6-3.6v0
		C367,392.9,365.4,391.3,363.4,391.3z"/>
	<polygon class="st9" points="505.8,820.8 689.2,852.6 689.2,630.5 490.3,592.9 	"/>
	<path class="st21" d="M492.2,621.1l13.6,199.7l179.8,31.1C668.8,748.1,593.9,661.6,492.2,621.1z"/>
	<polygon class="st9" points="702.1,852.6 885.5,820.8 901.1,592.9 702.1,630.5 	"/>
	<path class="st6" d="M521.7,653.4h-29.8c-39.9,0-72.6,32.7-72.6,72.6c0,39.9,32.7,72.6,72.6,72.6h29.8c39.9,0,72.6-32.7,72.6-72.6
		C594.3,686.1,561.6,653.4,521.7,653.4z"/>
	<path class="st17" d="M518.2,581.3L499,594.6l181.9,34.4l14.8-0.2C664.7,596.2,572.1,577.6,518.2,581.3z"/>
	<path class="st17" d="M695.7,628.7l14.8,0.2l181.9-34.4l-19.2-13.3C819.3,577.6,726.7,596.2,695.7,628.7z"/>
	<rect x="680.9" y="628.7" class="st11" width="29.6" height="223.8"/>
	<path class="st6" d="M498,632.5c-8.4,0-15.2,6.8-15.2,15.2v11.3c0,8.4,6.9,15.2,15.2,15.2c8.4,0,15.2-6.9,15.2-15.2v-11.3
		C513.2,639.4,506.4,632.5,498,632.5z"/>
	<path class="st7" d="M526.6,662.3h-20.1c-26.9,0-48.8,22-48.8,48.8c0,26.9,22,48.8,48.8,48.8h20.1c26.9,0,48.8-22,48.8-48.8
		C575.4,684.2,553.4,662.3,526.6,662.3z"/>
	<path class="st22" d="M529.8,667h-14.1c-18.9,0-34.4,15.5-34.4,34.4c0,18.9,15.5,34.4,34.4,34.4h14.1c18.9,0,34.4-15.5,34.4-34.4
		C564.2,682.5,548.7,667,529.8,667z"/>
	<path class="st21" d="M707.7,851.9l179.8-31.1l13.6-199.7C799.4,661.6,724.5,748.1,707.7,851.9z"/>
	<path class="st6" d="M893.4,632.5c-8.4,0-15.2,6.8-15.2,15.2v11.3c0,8.4,6.9,15.2,15.2,15.2c8.4,0,15.2-6.9,15.2-15.2v-11.3
		C908.6,639.4,901.7,632.5,893.4,632.5z"/>
	<path class="st6" d="M899.5,653.4h-29.8c-39.9,0-72.6,32.7-72.6,72.6c0,39.9,32.7,72.6,72.6,72.6h29.8c39.9,0,72.6-32.7,72.6-72.6
		C972,686.1,939.4,653.4,899.5,653.4z"/>
	<path class="st7" d="M884.9,662.3h-20.1c-26.9,0-48.8,22-48.8,48.8c0,26.9,22,48.8,48.8,48.8h20.1c26.9,0,48.8-22,48.8-48.8
		C933.7,684.2,911.7,662.3,884.9,662.3z"/>
	<path class="st22" d="M875.7,667h-14.1c-18.9,0-34.4,15.5-34.4,34.4c0,18.9,15.5,34.4,34.4,34.4h14.1c18.9,0,34.4-15.5,34.4-34.4
		C910.2,682.5,894.7,667,875.7,667z"/>
	<g>
		<path class="st19" d="M817.6,160.7c-20,14.2-24.6,41.9-10.4,61.9c4.2,5.9,9.5,10.4,15.5,13.5l-0.2,0.2l0.4,0
			c5,2.6,10.4,4.2,15.9,4.8l-22.1,20.4l23.9-3.7l-20.9,24.8l43.7-35L850,246c0,0,2-2.6,4.9-6.3c5-1.3,9.8-3.6,14.2-6.7
			c20-14.2,24.6-41.9,10.4-61.9C865.3,151.1,837.6,146.5,817.6,160.7z"/>
		<g>
			<path class="st23" d="M854.7,190.7l-24.6-4.6c-0.9-0.2-1.9,0.4-2,1.4c-0.2,1,0.4,1.9,1.4,2l22.3,4.2l-10.6,21.3
				c-0.4,0.9-0.1,1.9,0.8,2.3c0.9,0.4,1.9,0.1,2.3-0.8l11.6-23.3c0.1-0.2,0.2-0.3,0.2-0.5C856.3,191.8,855.6,190.9,854.7,190.7z"/>
			
				<ellipse transform="matrix(0.8145 -0.5802 0.5802 0.8145 44.9552 516.2963)" class="st9" cx="829.8" cy="187.9" rx="4.2" ry="4.2"/>
			
				<ellipse transform="matrix(0.8146 -0.5801 0.5801 0.8146 46.8023 531.303)" class="st9" cx="854.4" cy="192.5" rx="4.2" ry="4.2"/>
			
				<ellipse transform="matrix(0.8145 -0.5801 0.5801 0.8145 31.089 528.914)" class="st9" cx="842.7" cy="215.8" rx="4.2" ry="4.2"/>
		</g>
	</g>
	<path class="st9" d="M735.6,242.3L735.6,242.3c-5.7,0-10.3,4.6-10.3,10.3v29.1c0,5.7,4.6,10.3,10.3,10.3h0
		c5.7,0,10.3-4.6,10.3-10.3v-29.1C745.9,246.9,741.2,242.3,735.6,242.3z"/>
	<path class="st9" d="M763.6,249.2c-4.8-3.1-11.2-1.7-14.2,3.1l-15.7,24.5c-3.1,4.8-1.7,11.2,3.1,14.2c4.8,3.1,11.2,1.7,14.2-3.1
		l15.7-24.5C769.8,258.6,768.4,252.2,763.6,249.2z"/>
	<g>
		<path class="st3" d="M1160.8,804.9H976.3c-5.9,0-10.7,4.8-10.7,10.7v24.8c0,5.9,4.8,10.7,10.7,10.7h184.5
			c5.9,0,10.7-4.8,10.7-10.7v-24.8C1171.5,809.7,1166.7,804.9,1160.8,804.9z"/>
		<path class="st16" d="M1160.8,804.9h-82.3v46.2h82.3c5.9,0,10.7-4.8,10.7-10.7v-24.8C1171.5,809.7,1166.7,804.9,1160.8,804.9z"/>
		<polygon class="st16" points="1204,493.1 1107.7,766.9 1115.5,769.6 1211.9,495.9 		"/>
		<polygon class="st16" points="1134.2,776.3 1142,779 1238.4,505.3 1230.5,502.5 		"/>
		
			<rect x="1177.2" y="278" transform="matrix(0.8853 -0.4651 0.4651 0.8853 -47.6236 594.5959)" class="st16" width="8.3" height="231.6"/>
		
			<rect x="1152.3" y="291.1" transform="matrix(0.8853 -0.4651 0.4651 0.8853 -56.5564 584.5427)" class="st16" width="8.3" height="231.6"/>
		<polygon class="st16" points="1113.1,278.4 1026.7,285.8 1027.4,294.1 1113.8,286.7 		"/>
		<polygon class="st16" points="1034.5,313.8 1035.1,322.1 1121.6,314.7 1120.9,306.4 		"/>
		
			<ellipse transform="matrix(5.323159e-02 -0.9986 0.9986 5.323159e-02 657.6842 1692.0721)" class="st16" cx="1221.2" cy="499.2" rx="21.2" ry="21.2"/>
		
			<ellipse transform="matrix(0.9432 -0.3323 0.3323 0.9432 -96.4857 434.1165)" class="st3" cx="1221.2" cy="499.2" rx="11.5" ry="11.5"/>
		
			<ellipse transform="matrix(0.9432 -0.3323 0.3323 0.9432 -35.6098 387.451)" class="st16" cx="1115.1" cy="297.8" rx="21.2" ry="21.2"/>
		
			<ellipse transform="matrix(0.9432 -0.3323 0.3323 0.9432 -35.6117 387.432)" class="st3" cx="1115.1" cy="297.8" rx="11.5" ry="11.5"/>
		<rect x="1107.5" y="772.7" class="st16" width="8.3" height="32.1"/>
		<rect x="1134" y="772.7" class="st16" width="8.3" height="32.1"/>
		
			<ellipse transform="matrix(0.1947 -0.9809 0.9809 0.1947 153.0999 1722.6387)" class="st16" cx="1125.7" cy="768.1" rx="21.2" ry="21.2"/>
		
			<ellipse transform="matrix(0.9432 -0.3322 0.3322 0.9432 -191.2395 417.6046)" class="st3" cx="1125.7" cy="768.1" rx="11.5" ry="11.5"/>
		<path class="st16" d="M1038.7,331.7l16.6-43.8c7.4-19.4-2.5-41.3-21.9-48.7c-19.4-7.4-41.3,2.5-48.7,21.9l-15.8,41.6
			C918.2,299.3,869,329,850.1,379l221.5,83.9C1089.6,415.3,1074.9,363.3,1038.7,331.7z"/>
		<path class="st3" d="M1033.3,239.2c-19.4-7.4-41.3,2.5-48.7,21.9l-15.8,41.6C918.2,299.3,869,329,850.1,379l25.4,9.6
			c19.7-48.2,67.9-76.7,117.6-73.3l15.8-41.6c6.2-16.3,22.7-25.9,39.3-24.2C1044.3,245,1039.2,241.5,1033.3,239.2z"/>
	</g>
	<path class="st13" d="M1227.8,851.1H942.9c-10.5,0-19.1,8.6-19.1,19.1v0c0,10.5,8.6,19.1,19.1,19.1h284.9
		c10.5,0,19.1-8.6,19.1-19.1v0C1247,859.7,1238.4,851.1,1227.8,851.1z"/>
	<g>
		<path class="st14" d="M1180.9,782.4h-140.5v58.4h140.5c16.1,0,29.2-13.1,29.2-29.2C1210.1,795.6,1197,782.4,1180.9,782.4z"/>
		<rect x="951" y="782.4" class="st15" width="89.4" height="58.4"/>
		<rect x="938.6" y="840.8" class="st16" width="202.4" height="10.3"/>
		<rect x="938.6" y="772.2" class="st16" width="202.4" height="10.3"/>
		<path class="st3" d="M1183.5,772.2h-150.4c-2.6,0-4.7,2.3-4.7,5.1c0,2.8,2.1,5.1,4.7,5.1h150.4c7.3,0,14,3.3,18.8,8.6
			c4.8,5.3,7.8,12.6,7.8,20.6c0,8-3,15.3-7.8,20.6c-4.8,5.3-11.5,8.6-18.8,8.6h-150.4c-2.6,0-4.7,2.3-4.7,5.1c0,2.8,2.1,5.1,4.7,5.1
			h150.4c9.9,0,18.9-4.4,25.4-11.6c6.5-7.1,10.6-17,10.6-27.9c0-10.9-4-20.7-10.6-27.9C1202.4,776.6,1193.4,772.2,1183.5,772.2z"/>
		<g>
			<rect x="1040.5" y="790.2" class="st17" width="140.1" height="5.3"/>
			<rect x="951" y="790.2" class="st18" width="89.4" height="5.3"/>
			<rect x="1040.5" y="799.6" class="st17" width="140.1" height="5.3"/>
			<rect x="1040.5" y="809" class="st17" width="140.1" height="5.3"/>
			<rect x="1040.5" y="818.4" class="st17" width="140.1" height="5.3"/>
			<rect x="1040.5" y="827.7" class="st17" width="140.1" height="5.3"/>
			<rect x="951" y="799.6" class="st18" width="89.4" height="5.3"/>
			<rect x="951" y="809" class="st18" width="89.4" height="5.3"/>
			<rect x="951" y="818.4" class="st18" width="89.4" height="5.3"/>
			<rect x="951" y="827.7" class="st18" width="89.4" height="5.3"/>
		</g>
	</g>
	<g>
		<path class="st14" d="M1168,703.5h-156.8v58.4H1168c16.1,0,29.2-13.1,29.2-29.2C1197.2,716.7,1184.1,703.5,1168,703.5z"/>
		<path class="st3" d="M1168,693.3h-164.9c-2.8,0-5.1,2.3-5.1,5.1c0,2.8,2.3,5.1,5.1,5.1H1168c8,0,15.3,3.3,20.6,8.6
			c5.3,5.3,8.6,12.6,8.6,20.6c0,8-3.3,15.3-8.6,20.6c-5.3,5.3-12.6,8.6-20.6,8.6h-164.9c-2.8,0-5.1,2.3-5.1,5.1
			c0,2.8,2.3,5.1,5.1,5.1H1168c10.9,0,20.7-4.4,27.9-11.6c7.1-7.1,11.6-17,11.6-27.9c0-10.9-4.4-20.7-11.6-27.9
			C1188.8,697.7,1178.9,693.3,1168,693.3z"/>
		<rect x="1011.2" y="711.3" class="st17" width="153.6" height="5.3"/>
		<rect x="1011.2" y="720.7" class="st17" width="153.6" height="5.3"/>
		<rect x="1011.2" y="730.1" class="st17" width="153.6" height="5.3"/>
		<rect x="1011.2" y="739.5" class="st17" width="153.6" height="5.3"/>
		<rect x="1011.2" y="748.8" class="st17" width="153.6" height="5.3"/>
	</g>
</g>
</svg>
